<?xml version="1.0" standalone="no"?>
<!DOCTYPE svg PUBLIC "-//W3C//DTD SVG 20010904//EN"
 "http://www.w3.org/TR/2001/REC-SVG-20010904/DTD/svg10.dtd">
<svg version="1.0" xmlns="http://www.w3.org/2000/svg"
 width="512.000000pt" height="512.000000pt" viewBox="0 0 512.000000 512.000000"
 preserveAspectRatio="xMidYMid meet">

<g transform="translate(0.000000,512.000000) scale(0.100000,-0.100000)"
fill="#000000" stroke="none">
<path d="M793 5105 c-250 -68 -404 -327 -339 -570 33 -123 40 -132 584 -677
l516 -517 -52 -54 c-84 -90 -82 -119 15 -218 l64 -66 -138 -6 c-227 -11 -418
-59 -605 -153 -423 -212 -709 -584 -809 -1054 -33 -151 -33 -429 0 -580 72
-336 226 -603 481 -833 187 -169 423 -287 695 -348 l100 -23 1190 -4 c847 -2
1219 0 1290 8 511 59 945 362 1175 821 32 65 66 143 76 173 17 53 17 58 1 92
-30 62 -112 78 -155 30 -11 -11 -38 -64 -60 -117 -74 -180 -171 -320 -314
-456 -174 -163 -364 -264 -618 -326 -79 -19 -121 -20 -639 -24 l-554 -4 94 62
c129 86 315 273 402 405 168 253 250 520 251 816 1 82 4 148 8 148 4 0 38 -7
77 -15 144 -30 308 -45 486 -45 182 0 386 19 426 40 28 15 51 73 43 108 -4 18
-176 197 -533 556 l-526 528 190 -5 c198 -6 273 -17 411 -63 363 -118 663
-402 804 -759 17 -44 41 -90 52 -101 44 -48 125 -32 155 30 16 34 16 39 -1 92
-10 30 -44 109 -76 173 -211 421 -582 705 -1049 803 -79 17 -147 21 -391 25
l-295 5 -1020 1017 c-775 772 -1032 1024 -1071 1044 -102 53 -237 70 -341 42z
m237 -215 c31 -15 199 -176 543 -518 273 -273 497 -501 497 -507 0 -6 -84 -95
-188 -198 l-187 -187 -511 512 c-461 462 -513 518 -528 562 -63 192 73 375
269 363 36 -3 79 -13 105 -27z m2170 -2146 l975 -976 -215 5 c-177 4 -239 9
-353 31 -202 38 -192 32 -231 151 -78 239 -189 419 -370 601 -280 279 -613
426 -1006 441 l-135 5 -93 91 -92 92 267 267 c147 148 270 268 273 268 3 0
444 -439 980 -976z m-1430 27 c262 -59 455 -166 645 -356 193 -192 303 -396
361 -665 25 -118 26 -381 0 -498 -57 -267 -173 -482 -360 -668 -188 -187 -402
-303 -668 -360 -116 -25 -380 -25 -496 0 -266 57 -482 173 -668 360 -187 187
-303 401 -360 666 -26 119 -26 381 0 499 120 558 551 962 1108 1041 98 14 340
3 438 -19z m755 -111 c362 -178 611 -500 697 -903 30 -144 30 -370 0 -514 -86
-402 -336 -725 -697 -903 -166 -82 -184 -84 -95 -13 277 221 464 527 542 887
32 147 31 427 -1 576 -31 147 -63 236 -131 375 -98 199 -234 367 -410 508 -89
71 -72 69 95 -13z"/>
<path d="M872 4705 c-55 -47 -44 -130 21 -161 100 -48 186 78 108 157 -38 38
-87 39 -129 4z"/>
<path d="M1673 2466 c-198 -64 -328 -275 -293 -475 61 -352 487 -482 731 -224
92 97 133 228 111 355 -25 143 -112 261 -239 320 -60 29 -79 33 -168 35 -64 2
-115 -2 -142 -11z m225 -205 c113 -58 160 -178 112 -289 -54 -125 -189 -175
-308 -116 -170 85 -169 317 3 407 43 23 146 22 193 -2z"/>
<path d="M898 2184 c-86 -46 -50 -184 47 -184 99 0 133 140 45 185 -36 19 -57
18 -92 -1z"/>
<path d="M765 1676 c-187 -46 -305 -209 -293 -402 9 -137 96 -262 226 -322 50
-24 69 -27 157 -27 93 0 105 2 167 33 83 40 158 119 189 200 35 86 33 216 -3
295 -55 116 -149 196 -266 223 -69 16 -111 16 -177 0z m153 -201 c70 -30 121
-102 122 -173 1 -108 -89 -188 -201 -180 -187 14 -233 259 -65 343 58 29 92
31 144 10z"/>
<path d="M1791 1464 c-81 -22 -147 -62 -206 -126 -129 -139 -157 -320 -76
-494 41 -88 108 -157 195 -200 184 -90 383 -58 518 84 63 66 91 116 113 199
85 324 -219 624 -544 537z m193 -196 c55 -16 138 -99 154 -154 53 -180 -99
-353 -277 -316 -104 22 -171 89 -193 193 -37 178 136 330 316 277z"/>
<path d="M4971 1586 c-87 -48 -50 -186 49 -186 51 0 100 49 100 99 0 75 -83
124 -149 87z"/>
</g>
</svg>
